# xmcd
#
# Track frame offsets: 
#        150
#        12803
#        24304
#        34336
#        46625
#        58811
#        69080
#        80510
#        91660
#        102533
#        115954
#        127949
#        139907
#        149857
#        162457
#        172351
#        183907
#        196121
#        208334
#        216971
#        230063
#        240307
#        250978
#        261907
#
# Disc length: 3625 seconds
#
# Revision: 0
# Processed by: cddbd v1.5.2PL0 Copyright (c) Steve Scherf et al.
# Submitted via: ExactAudioCopy v0.95b4
#
DISCID=600e2718
DTITLE=The Beatles  - Library 1  FLAC
DYEAR=1900
DGENRE=
TTITLE0=Anna (Arthur Alexander)
TTITLE1=Chains (The Cookies)
TTITLE2=Boys (The Shirelles)
TTITLE3=Baby it's you (The Shirelles)
TTITLE4=A taste of honey (Lenny Welch)
TTITLE5=Twist and shout (The Isley Brothers)
TTITLE6='Till there was you (Peggy Lee)
TTITLE7=Please Mr. Postman (The Marvelettes)
TTITLE8=Roll over Beeethoven (Chuck Berry)
TTITLE9=You really got a hold on me (Smokey Robison and The Miracles)
TTITLE10=Devil in her heart (The Donays)
TTITLE11=Money (Barret Strong)
TTITLE12=Long tall Sally (Little Richard)
TTITLE13=Slow down (Larry Williams)
TTITLE14=Matchbox (Carl Perkins)
TTITLE15=Rock and roll music (Chuck Berry)
TTITLE16=Mr. Moonlight (Dr. Feelgood)
TTITLE17=Kansas City \\ Hey, hey, hey, hey (Little Richard)
TTITLE18=Words of love (Buddy Holly)
TTITLE19=Honey don't (Carl Perkins)
TTITLE20=Everybody's trying to be my baby (Carl Perkins)
TTITLE21=Bad boy (Larry Williams)
TTITLE22=Act naturally (Buck Owens)
TTITLE23=Dizzy Miss Lizzy (Larry Williams)
EXTD=
EXTT0=
EXTT1=
EXTT2=
EXTT3=
EXTT4=
EXTT5=
EXTT6=
EXTT7=
EXTT8=
EXTT9=
EXTT10=
EXTT11=
EXTT12=
EXTT13=
EXTT14=
EXTT15=
EXTT16=
EXTT17=
EXTT18=
EXTT19=
EXTT20=
EXTT21=
EXTT22=
EXTT23=
PLAYORDER=
